<svg width="40" height="39" viewBox="0 0 40 39" fill="none" xmlns="http://www.w3.org/2000/svg">
<path d="M12 31.0895C9.80004 31.0895 8.02003 32.8382 8.02003 34.9756C8.02003 37.113 9.80004 38.8618 12 38.8618C14.2001 38.8618 16.0001 37.113 16.0001 34.9756C16.0001 32.8382 14.2001 31.0895 12 31.0895ZM0 0V3.88618H4.00002L11.2 18.6342L8.50004 23.3948C8.18003 23.9389 8.00003 24.5801 8.00003 25.2602C8.00003 27.3976 9.80004 29.1464 12 29.1464H36.0001V25.2602H12.8401C12.5601 25.2602 12.3401 25.0464 12.3401 24.7744L12.4001 24.5412L14.2001 21.374H29.1001C30.6001 21.374 31.9201 20.5773 32.6001 19.3726L39.7602 6.76196C39.9202 6.48992 40.0002 6.1596 40.0002 5.82927C40.0002 4.76057 39.1002 3.88618 38.0002 3.88618H8.42003L6.54003 0H0ZM32.0001 31.0895C29.8001 31.0895 28.0201 32.8382 28.0201 34.9756C28.0201 37.113 29.8001 38.8618 32.0001 38.8618C34.2001 38.8618 36.0001 37.113 36.0001 34.9756C36.0001 32.8382 34.2001 31.0895 32.0001 31.0895Z" fill="#FFF8EE"/>
</svg>
