<svg width="20" height="18" viewBox="0 0 20 18" fill="none" xmlns="http://www.w3.org/2000/svg">
<path d="M4.02222 7.75144C5.62222 10.5674 8.2 12.866 11.3444 14.3088L13.7889 12.1197C14.0889 11.851 14.5333 11.7615 14.9222 11.8809C16.1667 12.2491 17.5111 12.4481 18.8889 12.4481C19.5 12.4481 20 12.8959 20 13.4431V16.9159C20 17.4631 19.5 17.9109 18.8889 17.9109C8.45556 17.9109 0 10.3386 0 0.99505C0 0.447773 0.5 0 1.11111 0H5C5.61111 0 6.11111 0.447773 6.11111 0.99505C6.11111 2.23886 6.33333 3.43292 6.74444 4.54738C6.86667 4.89565 6.77778 5.28372 6.46667 5.56233L4.02222 7.75144Z" fill="#FFF8EE"/>
</svg>
