<svg width="20" height="20" viewBox="0 0 20 20" fill="none" xmlns="http://www.w3.org/2000/svg">
<path d="M10 1.01228L12.2725 4.87963L12.4468 5.17615L12.7872 5.1275L17.2278 4.49298L15.621 8.68097L15.4978 9.00208L15.7482 9.23793L19.0129 12.3141L14.7368 13.669L14.4089 13.7729L14.3806 14.1157L14.0111 18.5861L10.2856 16.0877L10 15.8962L9.71436 16.0877L5.9889 18.5861L5.6194 14.1157L5.59107 13.7729L5.26321 13.669L0.987138 12.3141L4.25184 9.23793L4.50215 9.00208L4.37896 8.68097L2.77224 4.49298L7.21276 5.1275L7.55323 5.17615L7.72747 4.87963L10 1.01228Z" fill="#CFBD97" stroke="#CFBD97"/>
</svg>
